<svg xmlns="http://www.w3.org/2000/svg" width="60" height="60" viewBox="0 0 60 60">
  <g id="Group_500" data-name="Group 500" transform="translate(-1197 -4070)">
    <rect id="Rectangle_209" data-name="Rectangle 209" width="60" height="60" transform="translate(1197 4070)" fill="none"/>
    <g id="files" transform="translate(1208.934 4073.331)">
      <g id="Group_497" data-name="Group 497" transform="translate(7.743 0.86)">
        <path id="Path_675" data-name="Path 675" d="M248.006,8H248l1.023,1.023Zm0,0" transform="translate(-229.074 -8)" fill="#57a4ff"/>
        <path id="Path_676" data-name="Path 676" d="M90.926,8H72V52.735H99.529V16.65l-.047-.047H90.926ZM75.441,49.294V45.853l3.441,3.441Zm0,0" transform="translate(-72 -8)" fill="#c8b26f"/>
        <path id="Path_677" data-name="Path 677" d="M257.512,17.512l7.533,7.58h.047Zm0,0" transform="translate(-237.563 -16.489)" fill="#57a4ff"/>
        <path id="Path_678" data-name="Path 678" d="M248,8v8.6h8.556l-7.533-7.58Zm0,0" transform="translate(-229.074 -8)" fill="#c8b26f"/>
        <path id="Path_679" data-name="Path 679" d="M104,363.441h3.441L104,360Zm0,0" transform="translate(-100.559 -322.147)" fill="#57a4ff"/>
      </g>
      <path id="Path_680" data-name="Path 680" d="M93,8.855,84.4.252a.656.656,0,0,0-.064-.043.838.838,0,0,0-.183-.123.894.894,0,0,0-.1-.034.832.832,0,0,0-.215-.043L83.792,0H64.86A.86.86,0,0,0,64,.86V45.6a.86.86,0,0,0,.86.86H92.389a.86.86,0,0,0,.86-.86V9.51c0-.014-.007-.026-.008-.039A.855.855,0,0,0,93,8.855ZM84.646,2.94,90.275,8.6H84.646ZM65.72,44.735V1.721H82.926V9.463a.86.86,0,0,0,.86.86h7.743V44.735Zm0,0" transform="translate(-57.117 0)" fill="#257250"/>
      <path id="Path_681" data-name="Path 681" d="M62.11,62.456H33.721V16.86a.86.86,0,1,0-1.721,0V63.316a.86.86,0,0,0,.86.86H62.11a.86.86,0,1,0,0-1.721Zm0,0" transform="translate(-28.559 -14.279)" fill="#257250"/>
      <path id="Path_682" data-name="Path 682" d="M30.11,94.456H1.721V48.86A.86.86,0,1,0,0,48.86V95.316a.86.86,0,0,0,.86.86H30.11a.86.86,0,1,0,0-1.721Zm0,0" transform="translate(0 -42.838)" fill="#257250"/>
      <path id="Path_683" data-name="Path 683" d="M100.3,355.441h-.86l-1.721-1.721v-.86a.86.86,0,1,0-1.721,0V356.3a.86.86,0,0,0,.86.86H100.3a.86.86,0,0,0,0-1.721Zm0,0" transform="translate(-85.676 -314.147)" fill="#257250"/>
    </g>
  </g>
</svg>
