<svg xmlns="http://www.w3.org/2000/svg" width="57.177" height="55.448" viewBox="0 0 57.177 55.448">
  <g id="bank" transform="translate(-8 -15.003)">
    <g id="Group_656" data-name="Group 656" transform="translate(8.922 30.795)">
      <path id="Path_938" data-name="Path 938" d="M16,152v3.689h2.767v2.767H31.678v-2.767h5.533v2.767H50.122v-2.767h5.533v2.767H68.566v-2.767h2.767V152Z" transform="translate(-16 -152)" fill="#c8b26f"/>
      <path id="Path_939" data-name="Path 939" d="M200,432h12.911v2.767H200Z" transform="translate(-178.789 -399.722)" fill="#c8b26f"/>
      <path id="Path_940" data-name="Path 940" d="M360,432h12.911v2.767H360Z" transform="translate(-320.345 -399.722)" fill="#c8b26f"/>
      <path id="Path_941" data-name="Path 941" d="M40,432H52.911v2.767H40Z" transform="translate(-37.233 -399.722)" fill="#c8b26f"/>
    </g>
    <path id="Path_942" data-name="Path 942" d="M61.489,38.173a.922.922,0,0,0,.922-.922V35.406h1.844a.922.922,0,0,0,.922-.922V30.8a.922.922,0,0,0-.922-.922H62.411V27.106a.923.923,0,0,0-.544-.841l-24.9-11.182a.929.929,0,0,0-.756,0l-24.9,11.182a.923.923,0,0,0-.544.842v2.767H8.922A.922.922,0,0,0,8,30.8v3.689a.922.922,0,0,0,.922.922h1.844v1.844a.922.922,0,0,0,.922.922h1.844V62.151H11.689a.922.922,0,0,0-.922.922v1.844H8.922A.922.922,0,0,0,8,65.839v3.689a.922.922,0,0,0,.922.922H64.255a.922.922,0,0,0,.922-.922V65.839a.922.922,0,0,0-.922-.922H62.411V63.073a.922.922,0,0,0-.922-.922H59.644V38.173ZM12.611,27.7,36.589,16.935,60.566,27.7v2.17H12.611ZM9.844,33.562V31.717H63.333v1.844Zm33.2,28.589H41.2V38.173h1.844a.922.922,0,0,0,.922-.922V35.406h3.689v1.844a.922.922,0,0,0,.922.922h1.844V62.151H48.578a.922.922,0,0,0-.922.922v1.844H43.966V63.073A.922.922,0,0,0,43.044,62.151Zm-18.444,0H22.755V38.173H24.6a.922.922,0,0,0,.922-.922V35.406h3.689v1.844a.922.922,0,0,0,.922.922h1.844V62.151H30.133a.922.922,0,0,0-.922.922v1.844H25.522V63.073A.922.922,0,0,0,24.6,62.151Zm6.456-25.822v-.922H42.122v.922Zm8.3,1.844V62.151H33.822V38.173Zm-8.3,25.822H42.122v.922H31.055ZM12.611,36.328v-.922H23.678v.922Zm8.3,1.844V62.151H15.378V38.173Zm-8.3,25.822H23.678v.922H12.611Zm50.722,2.767v1.844H9.844V66.762Zm-2.767-2.767v.922H49.5v-.922Zm-8.3-1.844V38.173H57.8V62.151ZM49.5,36.328v-.922H60.566v.922Z" fill="#257250"/>
  </g>
</svg>
