<svg id="calendar" xmlns="http://www.w3.org/2000/svg" width="49.744" height="49.744" viewBox="0 0 49.744 49.744">
  <path id="Path_761" data-name="Path 761" d="M50.523,52.012H46.512V48H17.628v4.012H13.616V48H8V58.43H56.14V48H50.523Zm0,0" transform="translate(-7.198 -43.186)" fill="#c8b26f"/>
  <path id="Path_762" data-name="Path 762" d="M48.942,4.012H44.128V.8a.8.8,0,0,0-.8-.8H39.314a.8.8,0,0,0-.8.8V4.012H11.233V.8a.8.8,0,0,0-.8-.8H6.419a.8.8,0,0,0-.8.8V4.012H.8a.8.8,0,0,0-.8.8V48.942a.8.8,0,0,0,.8.8h48.14a.8.8,0,0,0,.8-.8V4.814A.8.8,0,0,0,48.942,4.012ZM24.07,16.047v9.628H13.64V16.047Zm12.035,0v9.628H25.675V16.047Zm12.035,0v9.628H37.709V16.047ZM24.07,27.279v9.628H13.64V27.279Zm0,11.233V48.14H13.64V38.512Zm1.6,0H36.1V48.14H25.675Zm0-1.6V27.279H36.1v9.628Zm12.035-9.628H48.14v9.628H37.709ZM40.116,1.6h2.407V8.023H40.116Zm-32.9,0H9.628V8.023H7.221ZM1.6,5.616H5.616V8.826a.8.8,0,0,0,.8.8H10.43a.8.8,0,0,0,.8-.8V5.616H38.512V8.826a.8.8,0,0,0,.8.8h4.012a.8.8,0,0,0,.8-.8V5.616H48.14v8.826H1.6Zm0,10.43h10.43v9.628H1.6Zm10.43,11.233v9.628H1.6V27.279ZM1.6,38.512h10.43V48.14H1.6Zm36.1,9.628V38.512H48.14V48.14Zm0,0" fill="#257250"/>
</svg>
