<svg xmlns="http://www.w3.org/2000/svg" width="17.07" height="15.999" viewBox="0 0 17.07 15.999">
  <path id="Path_779" data-name="Path 779" d="M12973.669,5524h-7.8a1.533,1.533,0,0,1-1.53-1.531v-6.782l-.424.423a.533.533,0,0,1-.756-.752l6.633-6.636a2.476,2.476,0,0,1,3.492,0l6.632,6.636a.533.533,0,0,1-.756.752l-.423-.423v6.782a1.534,1.534,0,0,1-1.531,1.531Zm3.534-1.065a.466.466,0,0,0,.466-.466v-7.848l-5.144-5.144a1.4,1.4,0,0,0-1.98,0l-5.145,5.144v7.848a.466.466,0,0,0,.466.466h3v-4.2a1.671,1.671,0,0,1,1.667-1.668h2a1.671,1.671,0,0,1,1.668,1.668v4.2Zm-4.069,0v-4.2a.6.6,0,0,0-.6-.6h-2a.6.6,0,0,0-.6.6v4.2Z" transform="translate(-12963 -5508)" fill="#a0a1a2"/>
</svg>
