<svg xmlns="http://www.w3.org/2000/svg" width="62.689" height="56.619" viewBox="0 0 62.689 56.619">
  <g id="home" transform="translate(0 -0.008)">
    <path id="Path_943" data-name="Path 943" d="M202.022,29.229H236.4L214.155,8,200,21.14S203.033,23.162,202.022,29.229Zm0,0" transform="translate(-174.723 -6.978)" fill="#c8b26f"/>
    <path id="Path_944" data-name="Path 944" d="M61.676,54.605H55.61V23.262h6.067a1.011,1.011,0,0,0,.94-.637,1,1,0,0,0-.243-1.1L40.13.29A1.006,1.006,0,0,0,38.745.28L25.712,12.312a8.507,8.507,0,0,0-6.5-3.206c-5.015,0-9.1,4.763-9.1,10.616a11.871,11.871,0,0,0,.526,3.539,10.478,10.478,0,0,0,3.519,5.278v3.266l-7.1,2.366a5.873,5.873,0,0,0-4.024,5.581V54.606H1.011a1.011,1.011,0,0,0,0,2.022H61.676a1.011,1.011,0,1,0,0-2.022Zm-34.7-40.716L39.423,2.4,59.149,21.24H28.209a12.452,12.452,0,0,0,.1-1.517,11.849,11.849,0,0,0-1.466-5.753.9.9,0,0,0,.132-.081ZM12.77,23.262a9.866,9.866,0,0,1-.637-3.539c0-4.742,3.175-8.594,7.078-8.594s7.078,3.852,7.078,8.594a10.288,10.288,0,0,1-.313,2.528,10.564,10.564,0,0,1-.313,1.011,8.12,8.12,0,0,1-3.417,4.227,5.991,5.991,0,0,1-3.033.829c-2.861,0-5.338-2.073-6.441-5.055ZM5.056,39.753A3.842,3.842,0,0,1,7.7,36.093l7.785-2.6a1.025,1.025,0,0,0,.688-.96V29.723a7.766,7.766,0,0,0,6.067,0v2.811a1.025,1.025,0,0,0,.688.96l7.785,2.6a3.842,3.842,0,0,1,2.649,3.66V54.606H5.056ZM38.421,54.606H35.388V39.753a5.848,5.848,0,0,0-2.022-4.418V33.373h5.055Zm8.089,0H40.444V33.373H46.51Zm7.078,0H48.532V32.362a1.011,1.011,0,0,0-1.011-1.011H32.355a1.011,1.011,0,0,0-1.011,1.011v1.8l-7.078-2.356V28.54a10.529,10.529,0,0,0,3.509-5.278H53.588Zm0,0" transform="translate(0 0)" fill="#257250"/>
  </g>
</svg>
