<svg xmlns="http://www.w3.org/2000/svg" width="60" height="60" viewBox="0 0 60 60">
  <path id="Subtraction_1" data-name="Subtraction 1" d="M50,60H10a2.5,2.5,0,1,1,0-5H50a2.5,2.5,0,0,1,0,5Zm5-7.5H5a2.5,2.5,0,1,1,0-5H55a2.5,2.5,0,1,1,0,5ZM57.5,45H2.5A2.5,2.5,0,0,1,0,42.5V2.5A2.5,2.5,0,0,1,2.5,0h55A2.5,2.5,0,0,1,60,2.5v40A2.5,2.5,0,0,1,57.5,45ZM20.342,21.559a2.2,2.2,0,0,0-1.548.642l-5.856,5.856a2.189,2.189,0,0,0,1.548,3.738h30.9a2.189,2.189,0,0,0,1.55-3.738L35.293,16.419a2.191,2.191,0,0,0-3.1,0l-8.042,8.042L21.892,22.2A2.2,2.2,0,0,0,20.342,21.559Zm-.064-11.468a3.259,3.259,0,1,0,3.261,3.261A3.263,3.263,0,0,0,20.278,10.091Z" fill="#fff"/>
</svg>
