<svg id="mail_1_" data-name="mail (1)" xmlns="http://www.w3.org/2000/svg" width="57.014" height="40.461" viewBox="0 0 57.014 40.461">
  <path id="Path_763" data-name="Path 763" d="M99.311,173.829l-8.876-4.438L80,189.461h38.622l-10.436-20.071Zm0,0" transform="translate(-70.804 -149.92)" fill="#c8b26f"/>
  <path id="Path_764" data-name="Path 764" d="M59.5,8H11.678A3.678,3.678,0,0,0,8,11.678V17.2l18.712,9.356,8.876,4.438,8.876-4.438L63.175,17.2V11.678A3.679,3.679,0,0,0,59.5,8Zm0,0" transform="translate(-7.08 -7.08)" fill="#c8b26f"/>
  <path id="Path_765" data-name="Path 765" d="M52.416,0H4.6A4.6,4.6,0,0,0,0,4.6V35.864a4.6,4.6,0,0,0,4.6,4.6H52.416a4.6,4.6,0,0,0,4.6-4.6V4.6A4.6,4.6,0,0,0,52.416,0ZM4.6,1.839H52.416A2.759,2.759,0,0,1,55.175,4.6V9.547l-18.195,9.1a.034.034,0,0,0-.024.007c-.008.006-.009.01-.016.013l-8.433,4.217-8.433-4.214c-.007,0-.01-.009-.016-.013s-.017,0-.024-.007L1.839,9.547V4.6A2.759,2.759,0,0,1,4.6,1.839Zm23.5,22.9a.919.919,0,0,0,.822,0L36.985,20.7,46.3,38.622H10.71L20.029,20.7ZM1.839,35.864V11.6L18.384,19.88,8.638,38.622H4.6a2.759,2.759,0,0,1-2.759-2.759Zm50.577,2.759h-4.04L38.629,19.876,55.174,11.6V35.864a2.759,2.759,0,0,1-2.758,2.759Zm0,0" fill="#257250"/>
</svg>
