<svg xmlns="http://www.w3.org/2000/svg" width="50.387" height="50.405" viewBox="0 0 50.387 50.405">
  <g id="rent" transform="translate(-0.086 0.001)">
    <path id="Path_766" data-name="Path 766" d="M282.778,75.55l4.064-5.689-4.064-5.689H264.086V75.55Zm-2.438-5.689v0Zm-4.064-2.438v0Zm-4.876,0h0Zm-4.876,2.438v0h2.438v0Zm0,0" transform="translate(-237.181 -57.654)" fill="#c8b26f"/>
    <path id="Path_767" data-name="Path 767" d="M30.842,139.55V128.172H12.149l-4.063,5.689,4.063,5.689Zm-8.94-8.127L24.34,136.3Zm-4.876,2.438v0Zm-4.876-2.438h2.438v2.438H12.962l1.625,2.438-1.625-2.438h1.625v-2.438Zm0,0" transform="translate(-7.187 -115.153)" fill="#c8b26f"/>
    <path id="Path_768" data-name="Path 768" d="M228.962,10.61a2.438,2.438,0,1,1-2.438-2.438A2.438,2.438,0,0,1,228.962,10.61Zm0,0" transform="translate(-201.244 -7.343)" fill="#c8b26f"/>
    <g id="Group_583" data-name="Group 583" transform="translate(0.086 -0.001)">
      <path id="Path_777" data-name="Path 777" d="M50.322,11.734,46.259,6.046a.812.812,0,0,0-.662-.34H27.718a.792.792,0,0,0-.05-.25,3.251,3.251,0,1,0-4.775,0,.8.8,0,0,0-.05.25v6.5H4.962a.812.812,0,0,0-.662.34L.237,18.236a.813.813,0,0,0,0,.944L4.3,24.869a.813.813,0,0,0,.662.34H22.842V45.527H6.588a.813.813,0,0,0-.813.813v3.251a.813.813,0,0,0,.813.813H43.972a.813.813,0,0,0,.813-.813V46.34a.813.813,0,0,0-.813-.813H27.718V18.708H45.6a.813.813,0,0,0,.662-.34l4.063-5.689a.813.813,0,0,0,0-.944ZM25.28,1.642a1.625,1.625,0,1,1-1.625,1.625A1.625,1.625,0,0,1,25.28,1.642ZM5.381,23.584,1.9,18.708l3.483-4.876H22.842v9.752ZM43.159,48.778H7.4V47.153H43.159ZM24.467,45.527V6.518h1.625v39.01ZM45.179,17.083H27.718V7.33H45.179l3.483,4.876Zm0,0" transform="translate(-0.086 0.001)" fill="#257250"/>
    </g>
  </g>
</svg>
