<svg id="Group_654" data-name="Group 654" xmlns="http://www.w3.org/2000/svg" width="55.157" height="55.157" viewBox="0 0 55.157 55.157">
  <path id="Path_932" data-name="Path 932" d="M71.157,47.255V39.9l-5.855-.2a21.954,21.954,0,0,0-3.627-8.748l4-4.28-5.2-5.2-4.28,4a21.954,21.954,0,0,0-8.748-3.627L47.255,16H39.9l-.2,5.855a21.954,21.954,0,0,0-8.748,3.627l-4.28-4-5.2,5.2,4,4.28a21.954,21.954,0,0,0-3.627,8.748L16,39.9v7.354l5.855.2A21.954,21.954,0,0,0,25.481,56.2l-4,4.28,5.2,5.2,4.28-4A21.954,21.954,0,0,0,39.706,65.3l.2,5.855h7.354l.2-5.855A21.954,21.954,0,0,0,56.2,61.675l4.28,4,5.2-5.2-4-4.28A21.954,21.954,0,0,0,65.3,47.451ZM43.578,61.045A17.466,17.466,0,1,1,61.045,43.578,17.466,17.466,0,0,1,43.578,61.045Z" transform="translate(-16 -16)" fill="#c8b26f"/>
  <path id="Path_933" data-name="Path 933" d="M149.789,136a13.789,13.789,0,1,0,13.789,13.789A13.789,13.789,0,0,0,149.789,136Zm0,15.628a1.839,1.839,0,1,1,1.839-1.839A1.839,1.839,0,0,1,149.789,151.628Z" transform="translate(-122.211 -122.211)" fill="#c8b26f"/>
</svg>
