<svg xmlns="http://www.w3.org/2000/svg" width="60" height="60" viewBox="0 0 60 60">
  <path id="Path_792" data-name="Path 792" d="M50,60H10a2.5,2.5,0,0,1,0-5H50a2.5,2.5,0,0,1,0,5Zm5-7.5H5a2.5,2.5,0,0,1,0-5H55a2.5,2.5,0,1,1,0,5ZM57.5,45H2.5A2.5,2.5,0,0,1,0,42.5V2.5A2.5,2.5,0,0,1,2.5,0h55A2.5,2.5,0,0,1,60,2.5v40A2.5,2.5,0,0,1,57.5,45ZM20.228,10.269a1.221,1.221,0,0,0-1.222,1.221V33.479a1.228,1.228,0,0,0,.606,1.056,1.241,1.241,0,0,0,.616.166,1.218,1.218,0,0,0,.6-.156L40.371,23.55a1.222,1.222,0,0,0,0-2.131L20.826,10.425A1.223,1.223,0,0,0,20.228,10.269Z" fill="#fff"/>
</svg>
