<svg xmlns="http://www.w3.org/2000/svg" width="17.409" height="12.767" viewBox="0 0 17.409 12.767">
  <path id="Path_760" data-name="Path 760" d="M16.652,80.213a3.432,3.432,0,0,0-1.936-1.229,2.317,2.317,0,0,0-1.949-3.572,2.216,2.216,0,0,0-1.505.562,4.648,4.648,0,0,0-4.3-2.883,4.473,4.473,0,0,0-3.282,1.36,4.472,4.472,0,0,0-1.36,3.282q0,.118.018.39A4.055,4.055,0,0,0,0,81.8a3.912,3.912,0,0,0,1.192,2.87,3.911,3.911,0,0,0,2.87,1.192h9.865a3.478,3.478,0,0,0,2.724-5.645Zm-5.136.349L8.333,83.745a.308.308,0,0,1-.417,0L4.724,80.553a.282.282,0,0,1-.082-.209.294.294,0,0,1,.29-.29H6.964V76.863a.294.294,0,0,1,.29-.29H8.995a.294.294,0,0,1,.29.29v3.192h2.031a.279.279,0,0,1,.29.29A.34.34,0,0,1,11.516,80.562Z" transform="translate(0 -73.091)" fill="#257250"/>
</svg>
